<svg width="278" height="84" viewBox="0 0 278 84" fill="none" xmlns="http://www.w3.org/2000/svg">
<path fill-rule="evenodd" clip-rule="evenodd" d="M105.622 22.6677C112.327 22.9197 118.033 27.0073 119.07 32.036C121.269 42.706 114.065 44.9874 112.058 46.8345L120.265 59.3161L120.354 59.4529L106.139 59.1468C104.643 57.8518 101.259 52.4213 99.8607 50.254C98.7432 48.5211 98.9632 48.6972 96.3116 48.8432L96.1575 58.9789C95.5725 59.4883 96.0931 59.2688 94.9074 59.3567L83.4844 59.3276L83.3049 22.391C83.4819 22.2581 103.725 22.4102 105.622 22.6677ZM96.3019 32.8218L96.2473 32.8672L96.2083 39.9163C100.367 40.0986 106.591 40.6991 106.574 36.3572C106.555 31.8432 100.239 32.6246 96.3019 32.8218Z" fill="white"/>
<path fill-rule="evenodd" clip-rule="evenodd" d="M142.793 22.3183L159.19 59.3904L144.977 59.354L142.793 54.4183L129.54 54.461L127.517 59.1911L113.396 59.4973L129.72 22.2976L142.793 22.3183ZM139.762 45.6314L136.328 36.9426L132.808 45.6132L139.762 45.6314Z" fill="white"/>
<path fill-rule="evenodd" clip-rule="evenodd" d="M14.5962 41.3168L23.4969 54.279L32.3493 41.6018L32.4108 59.3969L45.4665 59.3607L45.0641 22.5734L31.7681 22.5295L23.5785 35.3254L15.2259 22.5471L2.01676 22.5125L1.89746 59.4402L14.4985 59.4913L14.5962 41.3168Z" fill="white"/>
<path fill-rule="evenodd" clip-rule="evenodd" d="M71.1218 22.3183L87.5194 59.286L73.3066 59.2495L71.1218 54.4183L57.869 54.461L55.8462 59.1911L41.7251 59.3928L58.0495 22.2976L71.1218 22.3183ZM68.091 45.6314L64.6572 36.9426L61.1374 45.6132L68.091 45.6314Z" fill="white"/>
<path fill-rule="evenodd" clip-rule="evenodd" d="M188.232 37.3064L188.312 50.1483C188.324 52.2729 188.381 54.6823 187.637 55.3113C180.821 59.3539 174.068 61.2335 165.981 59.6268C164.015 59.2364 162.301 58.6763 160.589 57.8559C159.394 57.2107 157.852 56.3789 156.814 55.5942C155.486 54.5908 153.706 52.9777 152.266 50.7196C150.422 47.8287 149.793 45.02 149.697 41.7746C149.392 31.5426 156.68 22.4916 168.117 21.7328C173.665 21.0855 182.623 22.7027 186.818 27.0993C186.613 27.8819 181.134 34.1096 179.945 35.362C178.931 35.1071 177.911 34.2478 176.979 33.7089C171.602 30.5999 164.741 32.4589 163.03 38.4001C161.341 44.2631 164.704 51.3526 175.588 49.4046L176.207 49.1344L176.183 45.4233L169.571 45.1959C169.501 36.1155 168.687 37.4165 173.455 37.4287C178.412 37.4175 183.302 37.376 188.232 37.3064Z" fill="white"/>
<path fill-rule="evenodd" clip-rule="evenodd" d="M206.624 21.7743C218.203 21.7743 227.589 30.336 227.589 40.8975C227.589 51.4589 218.203 60.0206 206.624 60.0206C195.046 60.0206 185.66 51.4589 185.66 40.8975C185.66 30.336 195.046 21.7743 206.624 21.7743ZM206.624 32.4893C211.032 32.4893 214.606 36.2537 214.606 40.8975C214.606 45.5412 211.032 49.3057 206.624 49.3057C202.216 49.3057 198.643 45.5412 198.643 40.8975C198.643 36.2537 202.216 32.4893 206.624 32.4893Z" fill="white"/>
<path fill-rule="evenodd" clip-rule="evenodd" d="M275.338 22.4058H262.6V59.3892H275.338V22.4058Z" fill="white"/>
<path fill-rule="evenodd" clip-rule="evenodd" d="M263.361 37.3064L263.441 50.1483C263.453 52.2729 263.51 54.6823 262.765 55.3113C255.95 59.3539 249.196 61.2335 241.11 59.6268C239.144 59.2364 237.429 58.6763 235.718 57.8559C234.523 57.2107 232.981 56.3789 231.943 55.5942C230.615 54.5908 228.835 52.9777 227.394 50.7196C225.551 47.8287 224.922 45.02 224.826 41.7746C224.521 31.5426 231.809 22.4916 243.246 21.7328C248.793 21.0855 257.752 22.7027 261.947 27.0993C261.742 27.8819 256.263 34.1096 255.073 35.362C254.06 35.1071 253.039 34.2478 252.107 33.7089C246.73 30.5999 239.87 32.4589 238.159 38.4001C236.47 44.2631 239.833 51.3526 250.717 49.4046L251.336 49.1344L251.312 45.4233L244.7 45.1959C244.63 36.1155 243.816 37.4165 248.583 37.4287C253.541 37.4175 258.431 37.376 263.361 37.3064Z" fill="white"/>
<path d="M67.2996 12.1713V0H70.997C72.3753 0 73.2778 0.0594999 73.7015 0.1761C74.3776 0.3628 74.9338 0.765 75.3744 1.3799C75.814 1.992 76.034 2.7853 76.034 3.7542C76.034 4.6324 75.843 5.3718 75.4643 5.9668C75.0861 6.5617 74.6107 6.9783 74.041 7.2189C73.4717 7.46 72.4919 7.5816 71.101 7.5816H69.5901V12.1713H67.2996ZM69.5901 2.0571V5.5246H70.8674C71.722 5.5246 72.3072 5.4707 72.6143 5.3662C72.9218 5.2613 73.1743 5.0713 73.3716 4.7968C73.569 4.5191 73.6662 4.1819 73.6662 3.7825C73.6662 3.3775 73.5656 3.0343 73.3615 2.757C73.1579 2.4792 72.9054 2.2921 72.608 2.1987C72.3105 2.1054 71.6794 2.0571 70.7126 2.0571H69.5901ZM79.4572 12.1713V0H84.2998C85.5389 0 86.4215 0.1106 86.9559 0.3289C87.486 0.5472 87.9198 0.9266 88.2622 1.4649C88.6022 2.006 88.7739 2.652 88.7739 3.4026C88.7739 4.3547 88.5118 5.1224 87.9909 5.7034C87.47 6.284 86.7291 6.6495 85.7681 6.7995C86.26 7.1084 86.6711 7.4484 86.9912 7.8167C87.3148 8.185 87.7549 8.8454 88.3145 9.7971L89.7054 12.1713H86.9525L85.283 9.5254C84.6848 8.5677 84.2771 7.9671 84.0604 7.7261C83.8471 7.4855 83.6174 7.3183 83.3775 7.2273C83.1386 7.1339 82.7536 7.0889 82.2231 7.0889H81.7477V12.1713H79.4572ZM81.7477 5.1507H83.4559C84.5005 5.1507 85.1631 5.1113 85.448 5.0291C85.7328 4.9496 85.9625 4.788 86.1405 4.5446C86.3185 4.3008 86.406 3.9752 86.406 3.5698C86.406 3.182 86.3185 2.8703 86.1405 2.6348C85.9625 2.3998 85.7231 2.2382 85.4189 2.1476C85.2057 2.0882 84.5808 2.0571 83.5497 2.0571H81.7477V5.1507ZM92.4882 12.1713V0H100.931V2.0571H94.7782V4.743H100.504V6.7995H94.7782V10.1143H101.145V12.1713H92.4882ZM104.665 12.1713V0H112.468V2.0571H106.955V4.9468H111.73V7.0039H106.955V12.1713H104.665ZM115.913 12.1713V0H124.357V2.0571H118.204V4.743H123.93V6.7995H118.204V10.1143H124.57V12.1713H115.913ZM127.994 12.1713V0H130.284V12.1713H127.994ZM136.602 12.1713V2.0571H133.226V0H142.27V2.0571H138.893V12.1713H136.602ZM145.289 0H147.579V6.5845C147.579 7.6072 147.609 8.2727 147.667 8.5844C147.767 9.1199 148.01 9.5337 148.395 9.8282C148.78 10.1203 149.288 10.2675 149.919 10.2675C150.452 10.2675 150.885 10.1626 151.225 9.9559C151.562 9.7488 151.791 9.4627 151.914 9.0943C152.04 8.726 152.102 7.9356 152.102 6.7261V0H154.392V6.3917C154.392 8.0238 154.292 9.2021 154.095 9.9303C153.894 10.6586 153.445 11.2475 152.746 11.698C152.047 12.1485 151.125 12.3752 149.98 12.3752C148.79 12.3752 147.861 12.1885 147.191 11.8141C146.525 11.4403 146.04 10.9164 145.739 10.2392C145.438 9.5593 145.289 8.3099 145.289 6.4907V0ZM158.34 12.1713V0H163.182C164.421 0 165.304 0.1106 165.838 0.3289C166.369 0.5472 166.802 0.9266 167.145 1.4649C167.485 2.006 167.656 2.652 167.656 3.4026C167.656 4.3547 167.394 5.1224 166.873 5.7034C166.353 6.284 165.612 6.6495 164.651 6.7995C165.143 7.1084 165.554 7.4484 165.874 7.8167C166.197 8.185 166.637 8.8454 167.197 9.7971L168.588 12.1713H165.835L164.166 9.5254C163.567 8.5677 163.16 7.9671 162.943 7.7261C162.73 7.4855 162.5 7.3183 162.26 7.2273C162.021 7.1339 161.636 7.0889 161.106 7.0889H160.63V12.1713H158.34ZM160.63 5.1507H162.338C163.383 5.1507 164.046 5.1113 164.33 5.0291C164.615 4.9496 164.845 4.788 165.023 4.5446C165.201 4.3008 165.289 3.9752 165.289 3.5698C165.289 3.182 165.201 2.8703 165.023 2.6348C164.845 2.3998 164.606 2.2382 164.301 2.1476C164.088 2.0882 163.463 2.0571 162.432 2.0571H160.63V5.1507ZM181.638 12.1713H179.147L178.174 9.4176H173.593L172.652 12.1713H170.206L174.635 0H177.087L181.638 12.1713ZM177.423 7.3606L175.844 2.842L174.299 7.3606H177.423ZM188.228 0H192.424C193.485 0 194.288 0.104999 194.827 0.311699C195.368 0.518799 195.863 0.8699 196.319 1.3627C196.776 1.8532 197.132 2.4932 197.39 3.2781C197.649 4.0658 197.778 5.043 197.778 6.2106C197.778 7.2616 197.642 8.1766 197.37 8.9527C197.099 9.732 196.756 10.347 196.338 10.8003C195.921 11.2563 195.417 11.5963 194.827 11.8258C194.236 12.0552 193.476 12.1713 192.547 12.1713H188.228V0ZM190.519 2.0571V10.1143H192.246C192.987 10.1143 193.524 10.0548 193.857 9.9331C194.191 9.8115 194.462 9.6271 194.673 9.3804C194.886 9.1343 195.061 8.746 195.2 8.2133C195.339 7.6838 195.41 6.9839 195.41 6.114C195.41 5.213 195.339 4.5019 195.196 3.9808C195.054 3.4625 194.831 3.0514 194.53 2.7542C194.229 2.4565 193.864 2.2582 193.433 2.1648C193.113 2.0938 192.489 2.0571 191.564 2.0571H190.519ZM201.279 12.1713V0H209.722V2.0571H203.569V4.743H209.295V6.7995H203.569V10.1143H209.936V12.1713H201.279Z" fill="white"/>
<path d="M0 83.5858V70.3217H2.9937L4.7991 79.3868L6.5823 70.3217H9.5982V83.5858H7.7363V73.1251L5.7587 83.5858H3.843L1.8625 73.1251V83.5858H0ZM16.9664 83.5858V82.1437C16.7009 82.6658 16.3541 83.0731 15.9251 83.3666C15.4962 83.6601 15.0478 83.8083 14.5797 83.8083C14.1057 83.8083 13.6825 83.6722 13.3067 83.4005C12.9314 83.1288 12.6524 82.7429 12.4691 82.2399C12.2858 81.7397 12.1929 81.0109 12.1929 80.057V73.9713H14.1057V78.3864C14.1057 79.6492 14.1338 80.449 14.1928 80.7917C14.2493 81.1312 14.3761 81.3969 14.5734 81.5822C14.7712 81.7703 15.0111 81.8632 15.2906 81.8632C15.6093 81.8632 15.9024 81.7397 16.1737 81.4954C16.4412 81.2515 16.6192 80.9366 16.7038 80.5539C16.7884 80.1708 16.831 79.3283 16.831 78.025V73.9713H18.7438V83.5858H16.9664ZM27.9536 83.5858H26.1762V82.1748C25.8856 82.7182 25.5412 83.1256 25.1437 83.3973C24.7486 83.6722 24.3423 83.8083 23.9249 83.8083C23.1211 83.8083 22.4213 83.3699 21.8235 82.4897C21.2282 81.6096 20.9288 80.3561 20.9288 78.7231C20.9288 77.0803 21.2195 75.8393 21.8032 75.0024C22.3845 74.1655 23.1042 73.7489 23.9559 73.7489C24.3563 73.7489 24.7316 73.8599 25.0818 74.0823C25.4285 74.3076 25.7502 74.6411 26.0408 75.0888V70.3217H27.9536V83.5858ZM22.8754 78.5749C22.8754 79.4453 22.9431 80.0937 23.0786 80.5228C23.2111 80.9492 23.4031 81.2701 23.6541 81.4861C23.9056 81.6993 24.1871 81.8075 24.5004 81.8075C24.9178 81.8075 25.2791 81.5604 25.5867 81.0634C25.8943 80.566 26.0495 79.8192 26.0495 78.8188C26.0495 77.7101 25.9001 76.9136 25.6007 76.4259C25.3018 75.9378 24.9207 75.694 24.4584 75.694C24.0183 75.694 23.6459 75.9318 23.3378 76.4102C23.0307 76.889 22.8754 77.6112 22.8754 78.5749ZM31.9165 76.8983L30.1899 76.5091C30.3984 75.5272 30.7427 74.8231 31.2254 74.394C31.7047 73.9648 32.3962 73.7489 33.2987 73.7489C34.103 73.7489 34.7148 73.8724 35.1385 74.1195C35.5616 74.3666 35.8634 74.7028 36.0467 75.1292C36.2276 75.5551 36.3176 76.3303 36.3176 77.4538L36.3006 80.4244C36.3006 81.258 36.3321 81.8785 36.3906 82.2859C36.4501 82.6936 36.5603 83.1256 36.7238 83.5858H34.8449L34.5963 82.5362C34.2723 82.9588 33.9221 83.277 33.5502 83.4902C33.1773 83.7033 32.7827 83.8083 32.3619 83.8083C31.6621 83.8083 31.0871 83.5487 30.6411 83.0331C30.1928 82.5144 29.9699 81.8288 29.9699 80.9705C29.9699 80.4244 30.0598 79.952 30.2436 79.5442C30.4269 79.1397 30.6837 78.8155 31.0135 78.5749C31.3468 78.3339 31.8768 78.1179 32.6076 77.9326C33.4907 77.7073 34.1083 77.5002 34.4556 77.3056C34.4556 76.7747 34.4217 76.4259 34.3511 76.2592C34.2834 76.0953 34.1562 75.9596 33.9729 75.8514C33.7896 75.7465 33.5299 75.694 33.1942 75.694C32.8533 75.694 32.5849 75.7776 32.3904 75.9471C32.1955 76.1171 32.0379 76.432 31.9165 76.8983ZM34.4556 78.9544C34.2128 79.0626 33.8322 79.1922 33.3185 79.3376C32.7261 79.5071 32.3397 79.6956 32.1564 79.8991C31.9731 80.1062 31.8826 80.3747 31.8826 80.7021C31.8826 81.0695 31.9842 81.3811 32.1844 81.6347C32.3875 81.8846 32.6415 82.0114 32.9461 82.0114C33.217 82.0114 33.4849 81.9092 33.7504 81.7053C34.0155 81.5019 34.1988 81.2608 34.3032 80.9831C34.4048 80.7053 34.4556 80.1986 34.4556 79.4639V78.9544ZM45.3755 83.5858H43.4623V78.6734C43.4623 77.6916 43.426 77.0339 43.3554 76.7097C43.2848 76.3827 43.1494 76.1324 42.9549 75.9564C42.76 75.7804 42.5371 75.694 42.289 75.694C41.9703 75.694 41.6825 75.8082 41.4228 76.0335C41.1631 76.2592 40.9827 76.5741 40.8782 76.9721C40.7738 77.3706 40.7206 78.1207 40.7206 79.2261V83.5858H38.8078V73.9713H40.5851V75.3758C40.898 74.8357 41.2535 74.4284 41.6457 74.1567C42.0409 73.885 42.4752 73.7489 42.9549 73.7489C43.5102 73.7489 43.9817 73.9063 44.3623 74.2245C44.7463 74.5422 45.0114 74.9499 45.155 75.4469C45.302 75.9443 45.3755 76.6665 45.3755 77.6084V83.5858ZM54.5684 83.5858H52.7911V82.1748C52.5004 82.7182 52.1561 83.1256 51.7585 83.3973C51.3634 83.6722 50.9576 83.8083 50.5398 83.8083C49.736 83.8083 49.0361 83.3699 48.4384 82.4897C47.843 81.6096 47.5437 80.3561 47.5437 78.7231C47.5437 77.0803 47.8343 75.8393 48.4181 75.0024C48.9994 74.1655 49.719 73.7489 50.5707 73.7489C50.9712 73.7489 51.3465 73.8599 51.6966 74.0823C52.0434 74.3076 52.365 74.6411 52.6557 75.0888V70.3217H54.5684V83.5858ZM49.4903 78.5749C49.4903 79.4453 49.558 80.0937 49.6934 80.5228C49.8259 80.9492 50.0179 81.2701 50.2689 81.4861C50.5204 81.6993 50.8019 81.8075 51.1153 81.8075C51.5327 81.8075 51.8939 81.5604 52.2015 81.0634C52.5091 80.566 52.6644 79.8192 52.6644 78.8188C52.6644 77.7101 52.5149 76.9136 52.2156 76.4259C51.9167 75.9378 51.5361 75.694 51.0732 75.694C50.6331 75.694 50.2607 75.9318 49.9526 76.4102C49.6455 76.889 49.4903 77.6112 49.4903 78.5749ZM56.635 78.6427C56.635 77.7008 56.8077 76.8425 57.1486 76.0679C57.4905 75.2959 57.936 74.7154 58.4859 74.3294C59.0391 73.9435 59.6567 73.7489 60.3483 73.7489C61.5052 73.7489 62.4135 74.2458 63.0736 75.2402C63.7367 76.2346 64.0665 77.3952 64.0665 78.7231C64.0665 79.7142 63.8943 80.6092 63.55 81.4062C63.2061 82.2027 62.7549 82.8046 62.1934 83.2059C61.6343 83.6077 61.0225 83.8083 60.3566 83.8083C59.2872 83.8083 58.3983 83.3606 57.6932 82.4679C56.9881 81.5729 56.635 80.2976 56.635 78.6427ZM58.5821 78.7784C58.5821 79.7509 58.7572 80.4861 59.104 80.9863C59.4541 81.4833 59.8739 81.7332 60.3677 81.7332C60.8504 81.7332 61.2624 81.4833 61.6063 80.9798C61.9477 80.4796 62.1199 79.7388 62.1199 78.7598C62.1199 77.8058 61.9453 77.0771 61.5981 76.5769C61.2484 76.0739 60.8305 75.8236 60.3425 75.8236C59.8604 75.8236 59.4478 76.0739 59.1015 76.5769C58.7543 77.0771 58.5821 77.8123 58.5821 78.7784ZM69.4174 80.847L71.3302 80.455C71.4937 81.468 72.0068 81.9742 72.8648 81.9742C73.3189 81.9742 73.6604 81.8785 73.8862 81.6839C74.1116 81.4893 74.2248 81.2395 74.2248 80.9273C74.2248 80.7174 74.174 80.5507 74.0724 80.4304C73.965 80.3068 73.759 80.2019 73.4514 80.1122C71.8859 79.6617 70.8901 79.2293 70.464 78.8188C69.9364 78.3032 69.6709 77.5991 69.6709 76.7037C69.6709 75.8115 69.9306 75.0948 70.45 74.5547C70.9689 74.0173 71.722 73.7489 72.7124 73.7489C73.6546 73.7489 74.3742 73.9495 74.8651 74.3541C75.3555 74.7553 75.7027 75.4069 75.9001 76.3024L74.1058 76.7501C73.9452 75.9717 73.494 75.583 72.7492 75.583C72.2781 75.583 71.9449 75.6568 71.7476 75.8082C71.5474 75.9564 71.4482 76.151 71.4482 76.3888C71.4482 76.6048 71.5387 76.7808 71.7166 76.9229C71.8946 77.0678 72.4585 77.2842 73.4065 77.5713C74.4729 77.8922 75.1954 78.2847 75.576 78.7505C75.9513 79.214 76.1375 79.8345 76.1375 80.6064C76.1375 81.5325 75.8469 82.3016 75.2655 82.9036C74.6842 83.5055 73.8833 83.8083 72.859 83.8083C71.9309 83.8083 71.1692 83.5552 70.582 83.0517C69.993 82.5483 69.6032 81.8135 69.4174 80.847ZM83.1807 83.5858V82.1437C82.9157 82.6658 82.5684 83.0731 82.1399 83.3666C81.7109 83.6601 81.2621 83.8083 80.794 83.8083C80.32 83.8083 79.8968 83.6722 79.5215 83.4005C79.1462 83.1288 78.8672 82.7429 78.6839 82.2399C78.5006 81.7397 78.4072 81.0109 78.4072 80.057V73.9713H80.32V78.3864C80.32 79.6492 80.348 80.449 80.4075 80.7917C80.4641 81.1312 80.5908 81.3969 80.7882 81.5822C80.986 81.7703 81.2258 81.8632 81.5049 81.8632C81.8236 81.8632 82.1172 81.7397 82.388 81.4954C82.6559 81.2515 82.8339 80.9366 82.9181 80.5539C83.0032 80.1708 83.0458 79.3283 83.0458 78.025V73.9713H84.958V83.5858H83.1807ZM89.0056 76.8983L87.279 76.5091C87.4874 75.5272 87.8318 74.8231 88.3145 74.394C88.7937 73.9648 89.4853 73.7489 90.3878 73.7489C91.1921 73.7489 91.8039 73.8724 92.2275 74.1195C92.6507 74.3666 92.9525 74.7028 93.1358 75.1292C93.3167 75.5551 93.4066 76.3303 93.4066 77.4538L93.3897 80.4244C93.3897 81.258 93.4207 81.8785 93.4797 82.2859C93.5392 82.6936 93.6494 83.1256 93.8129 83.5858H91.934L91.6854 82.5362C91.3614 82.9588 91.0112 83.277 90.6393 83.4902C90.2664 83.7033 89.8718 83.8083 89.451 83.8083C88.7512 83.8083 88.1761 83.5487 87.7302 83.0331C87.2819 82.5144 87.0589 81.8288 87.0589 80.9705C87.0589 80.4244 87.1489 79.952 87.3327 79.5442C87.516 79.1397 87.7728 78.8155 88.1026 78.5749C88.4359 78.3339 88.9659 78.1179 89.6967 77.9326C90.5798 77.7073 91.1974 77.5002 91.5446 77.3056C91.5446 76.7747 91.5108 76.4259 91.4402 76.2592C91.3725 76.0953 91.2453 75.9596 91.062 75.8514C90.8787 75.7465 90.619 75.694 90.2833 75.694C89.9424 75.694 89.674 75.7776 89.4795 75.9471C89.2846 76.1171 89.127 76.432 89.0056 76.8983ZM91.5446 78.9544C91.3019 79.0626 90.9212 79.1922 90.4076 79.3376C89.8152 79.5071 89.4288 79.6956 89.2455 79.8991C89.0622 80.1062 88.9717 80.3747 88.9717 80.7021C88.9717 81.0695 89.0733 81.3811 89.2735 81.6347C89.4766 81.8846 89.7305 82.0114 90.0352 82.0114C90.3061 82.0114 90.574 81.9092 90.8395 81.7053C91.1045 81.5019 91.2878 81.2608 91.3923 80.9831C91.4939 80.7053 91.5446 80.1986 91.5446 79.4639V78.9544ZM101.748 83.5858L98.8591 73.9713H100.87L102.21 78.8833L102.608 80.52L103.014 78.8805L104.374 73.9713H106.324L103.48 83.5858H101.748ZM108.154 72.6746V70.3217H110.066V72.6746H108.154ZM108.154 83.5858V73.9713H110.066V83.5858H108.154ZM119.26 83.5858H117.482V82.1748C117.192 82.7182 116.847 83.1256 116.45 83.3973C116.055 83.6722 115.648 83.8083 115.231 83.8083C114.427 83.8083 113.727 83.3699 113.129 82.4897C112.534 81.6096 112.234 80.3561 112.234 78.7231C112.234 77.0803 112.526 75.8393 113.109 75.0024C113.69 74.1655 114.41 73.7489 115.262 73.7489C115.662 73.7489 116.038 73.8599 116.388 74.0823C116.735 74.3076 117.056 74.6411 117.347 75.0888V70.3217H119.26V83.5858ZM114.182 78.5749C114.182 79.4453 114.249 80.0937 114.385 80.5228C114.517 80.9492 114.709 81.2701 114.96 81.4861C115.211 81.6993 115.493 81.8075 115.806 81.8075C116.224 81.8075 116.585 81.5604 116.893 81.0634C117.2 80.566 117.355 79.8192 117.355 78.8188C117.355 77.7101 117.206 76.9136 116.907 76.4259C116.607 75.9378 116.227 75.694 115.764 75.694C115.324 75.694 114.951 75.9318 114.644 76.4102C114.337 76.889 114.182 77.6112 114.182 78.5749ZM123.223 76.8983L121.496 76.5091C121.705 75.5272 122.048 74.8231 122.531 74.394C123.011 73.9648 123.702 73.7489 124.605 73.7489C125.409 73.7489 126.021 73.8724 126.445 74.1195C126.867 74.3666 127.169 74.7028 127.352 75.1292C127.533 75.5551 127.623 76.3303 127.623 77.4538L127.606 80.4244C127.606 81.258 127.638 81.8785 127.697 82.2859C127.756 82.6936 127.866 83.1256 128.03 83.5858H126.151L125.902 82.5362C125.578 82.9588 125.228 83.277 124.856 83.4902C124.483 83.7033 124.089 83.8083 123.668 83.8083C122.968 83.8083 122.393 83.5487 121.947 83.0331C121.499 82.5144 121.276 81.8288 121.276 80.9705C121.276 80.4244 121.366 79.952 121.55 79.5442C121.733 79.1397 121.989 78.8155 122.319 78.5749C122.652 78.3339 123.183 78.1179 123.913 77.9326C124.796 77.7073 125.414 77.5002 125.762 77.3056C125.762 76.7747 125.727 76.4259 125.657 76.2592C125.589 76.0953 125.462 75.9596 125.279 75.8514C125.096 75.7465 124.836 75.694 124.5 75.694C124.159 75.694 123.891 75.7776 123.697 75.9471C123.502 76.1171 123.344 76.432 123.223 76.8983ZM125.762 78.9544C125.519 79.0626 125.138 79.1922 124.625 79.3376C124.032 79.5071 123.645 79.6956 123.462 79.8991C123.279 80.1062 123.188 80.3747 123.188 80.7021C123.188 81.0695 123.29 81.3811 123.49 81.6347C123.694 81.8846 123.947 82.0114 124.252 82.0114C124.523 82.0114 124.791 81.9092 125.056 81.7053C125.322 81.5019 125.505 81.2608 125.609 80.9831C125.711 80.7053 125.762 80.1986 125.762 79.4639V78.9544ZM130.13 83.5858V81.0476H132.026V83.5858H130.13ZM138.528 83.5858V70.3217H141.753C142.954 70.3217 143.741 70.3868 144.111 70.5131C144.701 70.717 145.186 71.1554 145.57 71.8251C145.953 72.4921 146.145 73.3569 146.145 74.4126C146.145 75.3698 145.979 76.1756 145.649 76.824C145.319 77.4723 144.904 77.9266 144.407 78.189C143.911 78.4514 143.056 78.5842 141.842 78.5842H140.526V83.5858H138.528ZM140.526 72.5631V76.3423H141.64C142.385 76.3423 142.895 76.2838 143.163 76.1696C143.431 76.0553 143.651 75.8486 143.824 75.5491C143.996 75.2462 144.08 74.8789 144.08 74.4437C144.08 74.002 143.993 73.6286 143.815 73.3258C143.637 73.0234 143.417 72.8195 143.158 72.7178C142.898 72.6156 142.348 72.5631 141.505 72.5631H140.526ZM150.241 83.5858H148.328V73.9713H150.105V75.3359C150.41 74.6968 150.681 74.2737 150.921 74.0638C151.161 73.8538 151.437 73.7489 151.75 73.7489C152.188 73.7489 152.602 73.9096 153 74.2273L152.405 76.4445C152.089 76.1663 151.792 76.0274 151.511 76.0274C151.245 76.0274 151.011 76.1357 150.808 76.3484C150.607 76.5648 150.461 76.9508 150.374 77.5127C150.286 78.0747 150.241 79.109 150.241 80.6125V83.5858ZM158.636 80.5293L160.532 80.9552C160.278 81.9217 159.883 82.6379 159.347 83.1075C158.811 83.5733 158.159 83.8083 157.392 83.8083C156.325 83.8083 155.504 83.4191 154.923 82.6379C154.237 81.7332 153.896 80.4643 153.896 78.8341C153.896 77.2253 154.241 75.9378 154.929 74.9718C155.513 74.1567 156.269 73.7489 157.194 73.7489C158.224 73.7489 159.031 74.1655 159.615 74.9992C160.289 75.9536 160.625 77.3613 160.625 79.22L160.616 79.5103H155.843C155.854 80.2697 156.009 80.8595 156.314 81.2761C156.616 81.6932 156.98 81.8999 157.406 81.8999C158.021 81.8999 158.43 81.4429 158.636 80.5293ZM158.737 77.954C158.72 77.2039 158.574 76.6387 158.297 76.262C158.021 75.8825 157.694 75.694 157.31 75.694C156.906 75.694 156.568 75.8918 156.292 76.2838C156.009 76.6819 155.871 77.241 155.877 77.954H158.737ZM162.158 80.847L164.071 80.455C164.235 81.468 164.748 81.9742 165.606 81.9742C166.061 81.9742 166.402 81.8785 166.627 81.6839C166.853 81.4893 166.966 81.2395 166.966 80.9273C166.966 80.7174 166.915 80.5507 166.813 80.4304C166.706 80.3068 166.5 80.2019 166.192 80.1122C164.627 79.6617 163.631 79.2293 163.205 78.8188C162.677 78.3032 162.412 77.5991 162.412 76.7037C162.412 75.8115 162.672 75.0948 163.191 74.5547C163.71 74.0173 164.463 73.7489 165.453 73.7489C166.396 73.7489 167.115 73.9495 167.606 74.3541C168.097 74.7553 168.444 75.4069 168.641 76.3024L166.847 76.7501C166.687 75.9717 166.235 75.583 165.49 75.583C165.019 75.583 164.686 75.6568 164.489 75.8082C164.289 75.9564 164.19 76.151 164.19 76.3888C164.19 76.6048 164.28 76.7808 164.458 76.9229C164.636 77.0678 165.2 77.2842 166.148 77.5713C167.214 77.8922 167.937 78.2847 168.317 78.7505C168.692 79.214 168.879 79.8345 168.879 80.6064C168.879 81.5325 168.588 82.3016 168.007 82.9036C167.425 83.5055 166.624 83.8083 165.6 83.8083C164.672 83.8083 163.91 83.5552 163.324 83.0517C162.734 82.5483 162.344 81.8135 162.158 80.847ZM175.363 80.5293L177.259 80.9552C177.005 81.9217 176.611 82.6379 176.075 83.1075C175.538 83.5733 174.887 83.8083 174.119 83.8083C173.053 83.8083 172.232 83.4191 171.651 82.6379C170.965 81.7332 170.624 80.4643 170.624 78.8341C170.624 77.2253 170.968 75.9378 171.656 74.9718C172.24 74.1567 172.996 73.7489 173.921 73.7489C174.952 73.7489 175.758 74.1655 176.342 74.9992C177.017 75.9536 177.352 77.3613 177.352 79.22L177.344 79.5103H172.57C172.582 80.2697 172.737 80.8595 173.041 81.2761C173.344 81.6932 173.707 81.8999 174.133 81.8999C174.748 81.8999 175.157 81.4429 175.363 80.5293ZM175.465 77.954C175.448 77.2039 175.301 76.6387 175.025 76.262C174.748 75.8825 174.421 75.694 174.038 75.694C173.634 75.694 173.296 75.8918 173.019 76.2838C172.737 76.6819 172.599 77.241 172.604 77.954H175.465ZM186.08 83.5858H184.167V78.6734C184.167 77.6916 184.13 77.0339 184.06 76.7097C183.99 76.3827 183.854 76.1324 183.659 75.9564C183.464 75.7804 183.242 75.694 182.993 75.694C182.675 75.694 182.387 75.8082 182.127 76.0335C181.868 76.2592 181.687 76.5741 181.583 76.9721C181.479 77.3706 181.425 78.1207 181.425 79.2261V83.5858H179.512V73.9713H181.29V75.3758C181.603 74.8357 181.958 74.4284 182.35 74.1567C182.745 73.885 183.18 73.7489 183.659 73.7489C184.215 73.7489 184.687 73.9063 185.067 74.2245C185.451 74.5422 185.716 74.9499 185.86 75.4469C186.007 75.9443 186.08 76.6665 186.08 77.6084V83.5858ZM191.972 73.9713V75.9903H190.669V79.8717C190.669 80.7146 190.689 81.199 190.728 81.3319C190.805 81.5757 190.962 81.6965 191.2 81.6965C191.374 81.6965 191.628 81.6161 191.958 81.4522L192.124 83.4284C191.684 83.6815 191.186 83.8083 190.627 83.8083C190.142 83.8083 189.752 83.6815 189.459 83.4284C189.168 83.172 188.971 82.8079 188.872 82.329C188.796 81.9802 188.757 81.2669 188.757 80.1893V75.9903H187.876V73.9713H188.757V72.0629L190.669 70.5809V73.9713H191.972ZM198.119 80.5293L200.015 80.9552C199.761 81.9217 199.366 82.6379 198.83 83.1075C198.294 83.5733 197.642 83.8083 196.875 83.8083C195.808 83.8083 194.987 83.4191 194.406 82.6379C193.721 81.7332 193.379 80.4643 193.379 78.8341C193.379 77.2253 193.723 75.9378 194.412 74.9718C194.996 74.1567 195.752 73.7489 196.677 73.7489C197.707 73.7489 198.514 74.1655 199.098 74.9992C199.772 75.9536 200.108 77.3613 200.108 79.22L200.099 79.5103H195.326C195.337 80.2697 195.492 80.8595 195.797 81.2761C196.099 81.6932 196.463 81.8999 196.889 81.8999C197.504 81.8999 197.913 81.4429 198.119 80.5293ZM198.221 77.954C198.204 77.2039 198.057 76.6387 197.781 76.262C197.504 75.8825 197.176 75.694 196.793 75.694C196.389 75.694 196.051 75.8918 195.774 76.2838C195.492 76.6819 195.354 77.241 195.36 77.954H198.221ZM212.695 83.5858H210.782V78.6734C210.782 77.6916 210.745 77.0339 210.675 76.7097C210.605 76.3827 210.469 76.1324 210.274 75.9564C210.079 75.7804 209.857 75.694 209.608 75.694C209.29 75.694 209.002 75.8082 208.742 76.0335C208.482 76.2592 208.302 76.5741 208.198 76.9721C208.094 77.3706 208.04 78.1207 208.04 79.2261V83.5858H206.127V73.9713H207.904V75.3758C208.218 74.8357 208.573 74.4284 208.965 74.1567C209.36 73.885 209.795 73.7489 210.274 73.7489C210.83 73.7489 211.301 73.9063 211.682 74.2245C212.066 74.5422 212.331 74.9499 212.475 75.4469C212.622 75.9443 212.695 76.6665 212.695 77.6084V83.5858ZM216.726 76.8983L214.998 76.5091C215.207 75.5272 215.552 74.8231 216.034 74.394C216.514 73.9648 217.205 73.7489 218.108 73.7489C218.912 73.7489 219.524 73.8724 219.947 74.1195C220.371 74.3666 220.672 74.7028 220.856 75.1292C221.036 75.5551 221.126 76.3303 221.126 77.4538L221.109 80.4244C221.109 81.258 221.141 81.8785 221.2 82.2859C221.259 82.6936 221.369 83.1256 221.533 83.5858H219.654L219.405 82.5362C219.081 82.9588 218.731 83.277 218.359 83.4902C217.986 83.7033 217.592 83.8083 217.171 83.8083C216.471 83.8083 215.896 83.5487 215.45 83.0331C215.002 82.5144 214.779 81.8288 214.779 80.9705C214.779 80.4244 214.869 79.952 215.053 79.5442C215.236 79.1397 215.493 78.8155 215.822 78.5749C216.155 78.3339 216.686 78.1179 217.416 77.9326C218.3 77.7073 218.917 77.5002 219.265 77.3056C219.265 76.7747 219.231 76.4259 219.16 76.2592C219.092 76.0953 218.965 75.9596 218.782 75.8514C218.599 75.7465 218.339 75.694 218.003 75.694C217.662 75.694 217.394 75.7776 217.199 75.9471C217.004 76.1171 216.847 76.432 216.726 76.8983ZM219.265 78.9544C219.022 79.0626 218.641 79.1922 218.128 79.3376C217.535 79.5071 217.149 79.6956 216.965 79.8991C216.782 80.1062 216.692 80.3747 216.692 80.7021C216.692 81.0695 216.793 81.3811 216.993 81.6347C217.196 81.8846 217.45 82.0114 217.755 82.0114C218.026 82.0114 218.294 81.9092 218.559 81.7053C218.824 81.5019 219.008 81.2608 219.112 80.9831C219.214 80.7053 219.265 80.1986 219.265 79.4639V78.9544ZM233.789 76.824L231.911 77.2689C231.772 76.256 231.338 75.7497 230.604 75.7497C230.133 75.7497 229.752 75.9657 229.464 76.4009C229.177 76.8365 229.033 77.5713 229.033 78.6056C229.033 79.7481 229.177 80.5539 229.464 81.0263C229.75 81.4986 230.133 81.7332 230.613 81.7332C230.971 81.7332 231.267 81.5975 231.499 81.3286C231.73 81.0602 231.897 80.5818 231.995 79.8991L233.874 80.3254C233.488 82.6472 232.379 83.8083 230.545 83.8083C229.374 83.8083 228.505 83.3174 227.938 82.3383C227.372 81.3597 227.086 80.1833 227.086 78.8062C227.086 77.1574 227.408 75.9011 228.051 75.0396C228.695 74.178 229.535 73.7489 230.579 73.7489C231.423 73.7489 232.111 73.996 232.644 74.4869C233.174 74.9778 233.558 75.7557 233.789 76.824ZM235.873 72.6746V70.3217H237.786V72.6746H235.873ZM235.873 83.5858V73.9713H237.786V83.5858H235.873ZM246.979 83.5858H245.202V82.1748C244.911 82.7182 244.567 83.1256 244.17 83.3973C243.775 83.6722 243.368 83.8083 242.951 83.8083C242.147 83.8083 241.447 83.3699 240.849 82.4897C240.254 81.6096 239.954 80.3561 239.954 78.7231C239.954 77.0803 240.245 75.8393 240.829 75.0024C241.41 74.1655 242.13 73.7489 242.981 73.7489C243.382 73.7489 243.758 73.8599 244.107 74.0823C244.454 74.3076 244.776 74.6411 245.067 75.0888V70.3217H246.979V83.5858ZM241.901 78.5749C241.901 79.4453 241.969 80.0937 242.105 80.5228C242.237 80.9492 242.429 81.2701 242.68 81.4861C242.931 81.6993 243.213 81.8075 243.526 81.8075C243.944 81.8075 244.305 81.5604 244.613 81.0634C244.92 80.566 245.075 79.8192 245.075 78.8188C245.075 77.7101 244.926 76.9136 244.627 76.4259C244.327 75.9378 243.947 75.694 243.484 75.694C243.044 75.694 242.671 75.9318 242.364 76.4102C242.057 76.889 241.901 77.6112 241.901 78.5749ZM250.942 76.8983L249.215 76.5091C249.424 75.5272 249.768 74.8231 250.251 74.394C250.731 73.9648 251.422 73.7489 252.324 73.7489C253.129 73.7489 253.741 73.8724 254.164 74.1195C254.587 74.3666 254.889 74.7028 255.072 75.1292C255.253 75.5551 255.343 76.3303 255.343 77.4538L255.326 80.4244C255.326 81.258 255.358 81.8785 255.417 82.2859C255.476 82.6936 255.586 83.1256 255.75 83.5858H253.87L253.622 82.5362C253.298 82.9588 252.948 83.277 252.576 83.4902C252.203 83.7033 251.808 83.8083 251.388 83.8083C250.688 83.8083 250.113 83.5487 249.667 83.0331C249.218 82.5144 248.995 81.8288 248.995 80.9705C248.995 80.4244 249.085 79.952 249.269 79.5442C249.452 79.1397 249.709 78.8155 250.039 78.5749C250.372 78.3339 250.903 78.1179 251.633 77.9326C252.516 77.7073 253.134 77.5002 253.481 77.3056C253.481 76.7747 253.447 76.4259 253.377 76.2592C253.309 76.0953 253.182 75.9596 252.999 75.8514C252.816 75.7465 252.556 75.694 252.22 75.694C251.879 75.694 251.611 75.7776 251.417 75.9471C251.222 76.1171 251.064 76.432 250.942 76.8983ZM253.481 78.9544C253.239 79.0626 252.858 79.1922 252.345 79.3376C251.752 79.5071 251.365 79.6956 251.182 79.8991C250.999 80.1062 250.908 80.3747 250.908 80.7021C250.908 81.0695 251.01 81.3811 251.21 81.6347C251.413 81.8846 251.667 82.0114 251.972 82.0114C252.243 82.0114 252.511 81.9092 252.776 81.7053C253.041 81.5019 253.225 81.2608 253.329 80.9831C253.43 80.7053 253.481 80.1986 253.481 79.4639V78.9544ZM264.469 83.5858H262.691V82.1748C262.401 82.7182 262.056 83.1256 261.659 83.3973C261.264 83.6722 260.857 83.8083 260.44 83.8083C259.636 83.8083 258.936 83.3699 258.338 82.4897C257.743 81.6096 257.444 80.3561 257.444 78.7231C257.444 77.0803 257.735 75.8393 258.318 75.0024C258.899 74.1655 259.619 73.7489 260.471 73.7489C260.872 73.7489 261.247 73.8599 261.597 74.0823C261.944 74.3076 262.265 74.6411 262.556 75.0888V70.3217H264.469V83.5858ZM259.391 78.5749C259.391 79.4453 259.458 80.0937 259.594 80.5228C259.726 80.9492 259.918 81.2701 260.169 81.4861C260.42 81.6993 260.702 81.8075 261.016 81.8075C261.433 81.8075 261.794 81.5604 262.102 81.0634C262.409 80.566 262.564 79.8192 262.564 78.8188C262.564 77.7101 262.415 76.9136 262.116 76.4259C261.817 75.9378 261.436 75.694 260.974 75.694C260.533 75.694 260.161 75.9318 259.853 76.4102C259.546 76.889 259.391 77.6112 259.391 78.5749ZM271.173 80.5293L273.07 80.9552C272.815 81.9217 272.421 82.6379 271.885 83.1075C271.349 83.5733 270.697 83.8083 269.929 83.8083C268.863 83.8083 268.042 83.4191 267.461 82.6379C266.775 81.7332 266.434 80.4643 266.434 78.8341C266.434 77.2253 266.778 75.9378 267.466 74.9718C268.051 74.1567 268.806 73.7489 269.732 73.7489C270.762 73.7489 271.569 74.1655 272.153 74.9992C272.827 75.9536 273.163 77.3613 273.163 79.22L273.154 79.5103H268.38C268.392 80.2697 268.547 80.8595 268.852 81.2761C269.154 81.6932 269.517 81.8999 269.944 81.8999C270.559 81.8999 270.968 81.4429 271.173 80.5293ZM271.276 77.954C271.259 77.2039 271.112 76.6387 270.835 76.262C270.559 75.8825 270.231 75.694 269.848 75.694C269.444 75.694 269.106 75.8918 268.829 76.2838C268.547 76.6819 268.409 77.241 268.415 77.954H271.276ZM275.339 83.5858V81.0476H277.235V83.5858H275.339Z" fill="white"/>
</svg>
